<?xml version="1.0" standalone="no"?>
<!DOCTYPE svg PUBLIC "-//W3C//DTD SVG 1.1//EN" "http://www.w3.org/Graphics/SVG/1.1/DTD/svg11.dtd" >
<svg xmlns="http://www.w3.org/2000/svg" xmlns:xlink="http://www.w3.org/1999/xlink" version="1.1">
<metadata>
Created by FontForge 20200427 at Sat Apr 18 23:01:12 2020
 By www
DamienGosset
</metadata>
<defs>
<font id="8-bitArcadeIn" horiz-adv-x="512" >
  <font-face 
    font-family="8-bit Arcade In"
    font-weight="500"
    font-stretch="normal"
    units-per-em="1024"
    panose-1="2 0 6 3 0 0 0 0 0 0"
    ascent="768"
    descent="-256"
    x-height="384"
    cap-height="384"
    bbox="0 0 448 682"
    underline-thickness="51"
    underline-position="-153"
    unicode-range="U+0020-017E"
  />
<missing-glyph horiz-adv-x="374" 
d="M34 0v682h272v-682h-272zM68 34h204v614h-204v-614z" />
    <glyph glyph-name=".notdef" horiz-adv-x="374" 
d="M34 0v682h272v-682h-272zM68 34h204v614h-204v-614z" />
    <glyph glyph-name="NULL" horiz-adv-x="0" 
 />
    <glyph glyph-name="nonmarkingreturn" horiz-adv-x="341" 
 />
    <glyph glyph-name="space" unicode=" " horiz-adv-x="320" 
 />
    <glyph glyph-name="a" unicode="a" 
d="M448 64h-192v64h-64v-64h-192v256h64v64h320v-64h64v-256zM256 192v128h-64v-128h64z" />
    <glyph glyph-name="b" unicode="b" 
d="M384 64h-384v320h384v-64h64v-64h-64v-64h64v-64h-64v-64zM256 256v64h-64v-64h64zM256 128v64h-64v-64h64z" />
    <glyph glyph-name="c" unicode="c" 
d="M384 64h-320v64h-64v192h64v64h320v-64h64v-64h-192v64h-64v-192h64v64h192v-64h-64v-64z" />
    <glyph glyph-name="d" unicode="d" 
d="M384 64h-384v320h384v-64h64v-192h-64v-64zM256 128v192h-64v-192h64z" />
    <glyph glyph-name="e" unicode="e" 
d="M192 128h256v-64h-448v320h448v-64h-256v-64h192v-64h-192v-64z" />
    <glyph glyph-name="f" unicode="f" 
d="M192 64h-192v320h448v-64h-256v-64h192v-64h-192v-128z" />
    <glyph glyph-name="g" unicode="g" 
d="M384 64h-320v64h-64v192h64v64h320v-64h-192v-192h128v64h-64v64h192v-128h-64v-64z" />
    <glyph glyph-name="h" unicode="h" 
d="M448 64h-192v128h-64v-128h-192v320h192v-128h64v128h192v-320z" />
    <glyph glyph-name="i" unicode="i" horiz-adv-x="256" 
d="M192 64h-192v320h192v-320z" />
    <glyph glyph-name="j" unicode="j" 
d="M448 64h-384v64h-64v64h192v-64h64v256h192v-320z" />
    <glyph glyph-name="k" unicode="k" 
d="M448 64h-192v64h-64v-64h-192v320h192v-64h64v64h192v-64h-64v-64h-64v-64h64v-64h64v-64z" />
    <glyph glyph-name="l" unicode="l" 
d="M192 128h256v-64h-448v320h192v-256z" />
    <glyph glyph-name="m" unicode="m" 
d="M192 128v64h-64v-128h-128v320h128v-64h64v-64h64v64h64v64h128v-320h-128v128h-64v-64h-64z" />
    <glyph glyph-name="n" unicode="n" 
d="M448 64h-128v64h-128v64h-64v-128h-128v320h128v-64h128v-64h64v128h128v-320z" />
    <glyph glyph-name="o" unicode="o" 
d="M384 64h-320v64h-64v192h64v64h320v-64h64v-192h-64v-64zM256 128v192h-64v-192h64z" />
    <glyph glyph-name="p" unicode="p" 
d="M192 64h-192v320h384v-64h64v-128h-64v-64h-192v-64zM256 192v128h-64v-128h64z" />
    <glyph glyph-name="q" unicode="q" 
d="M448 64h-256v64h-192v192h64v64h320v-64h64v-128h-64v-64h64v-64zM256 192v128h-64v-128h64z" />
    <glyph glyph-name="r" unicode="r" 
d="M448 64h-192v64h-64v-64h-192v320h384v-64h64v-128h-64v-64h64v-64zM256 192v128h-64v-128h64z" />
    <glyph glyph-name="s" unicode="s" 
d="M384 64h-384v64h256v64h-192v64h-64v64h64v64h384v-64h-256v-64h192v-64h64v-64h-64v-64z" />
    <glyph glyph-name="t" unicode="t" 
d="M384 64h-320v64h64v192h-128v64h448v-64h-128v-192h64v-64z" />
    <glyph glyph-name="u" unicode="u" 
d="M384 64h-320v64h-64v256h192v-256h64v256h192v-256h-64v-64z" />
    <glyph glyph-name="v" unicode="v" 
d="M320 64h-192v64h-64v64h-64v192h192v-192h64v192h192v-192h-64v-64h-64v-64z" />
    <glyph glyph-name="w" unicode="w" 
d="M384 64h-128v64h-64v-64h-128v64h-64v256h128v-128h64v64h64v-64h64v128h128v-256h-64v-64z" />
    <glyph glyph-name="x" unicode="x" 
d="M448 64h-192v64h-64v-64h-192v64h64v64h64v64h-64v64h-64v64h192v-64h64v64h192v-64h-64v-64h-64v-64h64v-64h64v-64z" />
    <glyph glyph-name="y" unicode="y" 
d="M320 64h-192v128h-64v64h-64v128h128v-64h64v-64h64v64h64v64h128v-128h-64v-64h-64v-128z" />
    <glyph glyph-name="z" unicode="z" 
d="M256 128h192v-64h-448v64h64v64h64v64h64v64h-192v64h448v-64h-64v-64h-64v-64h-64v-64z" />
    <glyph glyph-name="uni00A0" unicode="&#xa0;" horiz-adv-x="320" 
 />
    <glyph glyph-name="zero" unicode="0" 
d="M384 64h-320v64h-64v192h64v64h320v-64h64v-192h-64v-64zM256 128v192h-64v-192h64z" />
    <glyph glyph-name="one" unicode="1" horiz-adv-x="320" 
d="M256 64h-192v192h-64v64h64v64h192v-320z" />
    <glyph glyph-name="two" unicode="2" 
d="M256 128h192v-64h-448v64h64v64h128v64h-192v64h64v64h320v-64h64v-64h-64v-64h-128v-64zM256 256v64h-64v-64h64z" />
    <glyph glyph-name="three" unicode="3" 
d="M256 128v64h-64v64h-192v64h64v64h320v-64h64v-192h-64v-64h-320v64h-64v64h192v-64h64zM256 256v64h-64v-64h64z" />
    <glyph glyph-name="four" unicode="4" 
d="M192 192v64h-64v64h64v64h192v-192h64v-64h-64v-64h-192v64h-192v64h64v64h64v-64h64z" />
    <glyph glyph-name="five" unicode="5" 
d="M384 64h-384v64h256v64h-256v192h448v-64h-256v-64h192v-64h64v-64h-64v-64z" />
    <glyph glyph-name="six" unicode="6" 
d="M384 64h-320v64h-64v192h64v64h320v-64h-192v-64h192v-64h64v-64h-64v-64zM256 128v64h-64v-64h64z" />
    <glyph glyph-name="seven" unicode="7" 
d="M320 64h-192v128h64v64h64v64h-256v64h448v-64h-64v-64h-64v-192z" />
    <glyph glyph-name="eight" unicode="8" 
d="M384 64h-320v64h-64v192h64v64h320v-64h64v-192h-64v-64zM256 256v64h-64v-64h64zM256 128v64h-64v-64h64z" />
    <glyph glyph-name="nine" unicode="9" 
d="M384 64h-320v64h192v64h-192v64h-64v64h64v64h320v-64h64v-192h-64v-64zM256 256v64h-64v-64h64z" />
    <glyph glyph-name="A" unicode="A" 
d="M448 64h-192v64h-64v-64h-192v256h64v64h320v-64h64v-256zM256 192v128h-64v-128h64z" />
    <glyph glyph-name="B" unicode="B" 
d="M384 64h-384v320h384v-64h64v-64h-64v-64h64v-64h-64v-64zM256 256v64h-64v-64h64zM256 128v64h-64v-64h64z" />
    <glyph glyph-name="C" unicode="C" 
d="M384 64h-320v64h-64v192h64v64h320v-64h64v-64h-192v64h-64v-192h64v64h192v-64h-64v-64z" />
    <glyph glyph-name="D" unicode="D" 
d="M384 64h-384v320h384v-64h64v-192h-64v-64zM256 128v192h-64v-192h64z" />
    <glyph glyph-name="E" unicode="E" 
d="M192 128h256v-64h-448v320h448v-64h-256v-64h192v-64h-192v-64z" />
    <glyph glyph-name="F" unicode="F" 
d="M192 64h-192v320h448v-64h-256v-64h192v-64h-192v-128z" />
    <glyph glyph-name="G" unicode="G" 
d="M384 64h-320v64h-64v192h64v64h320v-64h-192v-192h128v64h-64v64h192v-128h-64v-64z" />
    <glyph glyph-name="H" unicode="H" 
d="M448 64h-192v128h-64v-128h-192v320h192v-128h64v128h192v-320z" />
    <glyph glyph-name="I" unicode="I" horiz-adv-x="256" 
d="M192 64h-192v320h192v-320z" />
    <glyph glyph-name="J" unicode="J" 
d="M448 64h-384v64h-64v64h192v-64h64v256h192v-320z" />
    <glyph glyph-name="K" unicode="K" 
d="M448 64h-192v64h-64v-64h-192v320h192v-64h64v64h192v-64h-64v-64h-64v-64h64v-64h64v-64z" />
    <glyph glyph-name="L" unicode="L" 
d="M192 128h256v-64h-448v320h192v-256z" />
    <glyph glyph-name="M" unicode="M" 
d="M192 128v64h-64v-128h-128v320h128v-64h64v-64h64v64h64v64h128v-320h-128v128h-64v-64h-64z" />
    <glyph glyph-name="N" unicode="N" 
d="M448 64h-128v64h-128v64h-64v-128h-128v320h128v-64h128v-64h64v128h128v-320z" />
    <glyph glyph-name="O" unicode="O" 
d="M384 64h-320v64h-64v192h64v64h320v-64h64v-192h-64v-64zM256 128v192h-64v-192h64z" />
    <glyph glyph-name="P" unicode="P" 
d="M192 64h-192v320h384v-64h64v-128h-64v-64h-192v-64zM256 192v128h-64v-128h64z" />
    <glyph glyph-name="Q" unicode="Q" 
d="M448 64h-256v64h-192v192h64v64h320v-64h64v-128h-64v-64h64v-64zM256 192v128h-64v-128h64z" />
    <glyph glyph-name="R" unicode="R" 
d="M448 64h-192v64h-64v-64h-192v320h384v-64h64v-128h-64v-64h64v-64zM256 192v128h-64v-128h64z" />
    <glyph glyph-name="S" unicode="S" 
d="M384 64h-384v64h256v64h-192v64h-64v64h64v64h384v-64h-256v-64h192v-64h64v-64h-64v-64z" />
    <glyph glyph-name="T" unicode="T" 
d="M384 64h-320v64h64v192h-128v64h448v-64h-128v-192h64v-64z" />
    <glyph glyph-name="U" unicode="U" 
d="M384 64h-320v64h-64v256h192v-256h64v256h192v-256h-64v-64z" />
    <glyph glyph-name="V" unicode="V" 
d="M320 64h-192v64h-64v64h-64v192h192v-192h64v192h192v-192h-64v-64h-64v-64z" />
    <glyph glyph-name="W" unicode="W" 
d="M384 64h-128v64h-64v-64h-128v64h-64v256h128v-128h64v64h64v-64h64v128h128v-256h-64v-64z" />
    <glyph glyph-name="X" unicode="X" 
d="M448 64h-192v64h-64v-64h-192v64h64v64h64v64h-64v64h-64v64h192v-64h64v64h192v-64h-64v-64h-64v-64h64v-64h64v-64z" />
    <glyph glyph-name="Y" unicode="Y" 
d="M320 64h-192v128h-64v64h-64v128h128v-64h64v-64h64v64h64v64h128v-128h-64v-64h-64v-128z" />
    <glyph glyph-name="Z" unicode="Z" 
d="M256 128h192v-64h-448v64h64v64h64v64h64v64h-192v64h448v-64h-64v-64h-64v-64h-64v-64z" />
    <glyph glyph-name="Scaron" unicode="&#x160;" 
d="M384 64h-384v64h256v64h-192v64h-64v64h64v64h384v-64h-256v-64h192v-64h64v-64h-64v-64z" />
    <glyph glyph-name="Sacute" unicode="&#x15a;" 
d="M384 64h-384v64h256v64h-192v64h-64v64h64v64h384v-64h-256v-64h192v-64h64v-64h-64v-64z" />
    <glyph glyph-name="Scedilla" unicode="&#x15e;" 
d="M384 64h-384v64h256v64h-192v64h-64v64h64v64h384v-64h-256v-64h192v-64h64v-64h-64v-64z" />
    <glyph glyph-name="scaron" unicode="&#x161;" 
d="M384 64h-384v64h256v64h-192v64h-64v64h64v64h384v-64h-256v-64h192v-64h64v-64h-64v-64z" />
    <glyph glyph-name="scedilla" unicode="&#x15f;" 
d="M384 64h-384v64h256v64h-192v64h-64v64h64v64h384v-64h-256v-64h192v-64h64v-64h-64v-64z" />
    <glyph glyph-name="sacute" unicode="&#x15b;" 
d="M384 64h-384v64h256v64h-192v64h-64v64h64v64h384v-64h-256v-64h192v-64h64v-64h-64v-64z" />
    <glyph glyph-name="tcaron" unicode="&#x165;" 
d="M384 64h-320v64h64v192h-128v64h448v-64h-128v-192h64v-64z" />
    <glyph glyph-name="uni0162" unicode="&#x162;" 
d="M384 64h-320v64h64v192h-128v64h448v-64h-128v-192h64v-64z" />
    <glyph glyph-name="uni0163" unicode="&#x163;" 
d="M384 64h-320v64h64v192h-128v64h448v-64h-128v-192h64v-64z" />
    <glyph glyph-name="Aogonek" unicode="&#x104;" 
d="M448 64h-192v64h-64v-64h-192v256h64v64h320v-64h64v-256zM256 192v128h-64v-128h64z" />
    <glyph glyph-name="aogonek" unicode="&#x105;" 
d="M448 64h-192v64h-64v-64h-192v256h64v64h320v-64h64v-256zM256 192v128h-64v-128h64z" />
    <glyph glyph-name="Aacute" unicode="&#xc1;" 
d="M448 64h-192v64h-64v-64h-192v256h64v64h320v-64h64v-256zM256 192v128h-64v-128h64z" />
    <glyph glyph-name="Acircumflex" unicode="&#xc2;" 
d="M448 64h-192v64h-64v-64h-192v256h64v64h320v-64h64v-256zM256 192v128h-64v-128h64z" />
    <glyph glyph-name="Abreve" unicode="&#x102;" 
d="M448 64h-192v64h-64v-64h-192v256h64v64h320v-64h64v-256zM256 192v128h-64v-128h64z" />
    <glyph glyph-name="Adieresis" unicode="&#xc4;" 
d="M448 64h-192v64h-64v-64h-192v256h64v64h320v-64h64v-256zM256 192v128h-64v-128h64z" />
    <glyph glyph-name="aacute" unicode="&#xe1;" 
d="M448 64h-192v64h-64v-64h-192v256h64v64h320v-64h64v-256zM256 192v128h-64v-128h64z" />
    <glyph glyph-name="acircumflex" unicode="&#xe2;" 
d="M448 64h-192v64h-64v-64h-192v256h64v64h320v-64h64v-256zM256 192v128h-64v-128h64z" />
    <glyph glyph-name="abreve" unicode="&#x103;" 
d="M448 64h-192v64h-64v-64h-192v256h64v64h320v-64h64v-256zM256 192v128h-64v-128h64z" />
    <glyph glyph-name="adieresis" unicode="&#xe4;" 
d="M448 64h-192v64h-64v-64h-192v256h64v64h320v-64h64v-256zM256 192v128h-64v-128h64z" />
    <glyph glyph-name="Racute" unicode="&#x154;" 
d="M448 64h-192v64h-64v-64h-192v320h384v-64h64v-128h-64v-64h64v-64zM256 192v128h-64v-128h64z" />
    <glyph glyph-name="racute" unicode="&#x155;" 
d="M448 64h-192v64h-64v-64h-192v320h384v-64h64v-128h-64v-64h64v-64zM256 192v128h-64v-128h64z" />
    <glyph glyph-name="Rcaron" unicode="&#x158;" 
d="M448 64h-192v64h-64v-64h-192v320h384v-64h64v-128h-64v-64h64v-64zM256 192v128h-64v-128h64z" />
    <glyph glyph-name="rcaron" unicode="&#x159;" 
d="M448 64h-192v64h-64v-64h-192v320h384v-64h64v-128h-64v-64h64v-64zM256 192v128h-64v-128h64z" />
    <glyph glyph-name="Lacute" unicode="&#x139;" 
d="M192 128h256v-64h-448v320h192v-256z" />
    <glyph glyph-name="lacute" unicode="&#x13a;" 
d="M192 128h256v-64h-448v320h192v-256z" />
    <glyph glyph-name="Cacute" unicode="&#x106;" 
d="M384 64h-320v64h-64v192h64v64h320v-64h64v-64h-192v64h-64v-192h64v64h192v-64h-64v-64z" />
    <glyph glyph-name="Ccedilla" unicode="&#xc7;" 
d="M384 64h-320v64h-64v192h64v64h320v-64h64v-64h-192v64h-64v-192h64v64h192v-64h-64v-64z" />
    <glyph glyph-name="Ccaron" unicode="&#x10c;" 
d="M384 64h-320v64h-64v192h64v64h320v-64h64v-64h-192v64h-64v-192h64v64h192v-64h-64v-64z" />
    <glyph glyph-name="cacute" unicode="&#x107;" 
d="M384 64h-320v64h-64v192h64v64h320v-64h64v-64h-192v64h-64v-192h64v64h192v-64h-64v-64z" />
    <glyph glyph-name="ccedilla" unicode="&#xe7;" 
d="M384 64h-320v64h-64v192h64v64h320v-64h64v-64h-192v64h-64v-192h64v64h192v-64h-64v-64z" />
    <glyph glyph-name="ccaron" unicode="&#x10d;" 
d="M384 64h-320v64h-64v192h64v64h320v-64h64v-64h-192v64h-64v-192h64v64h192v-64h-64v-64z" />
    <glyph glyph-name="Eacute" unicode="&#xc9;" 
d="M192 128h256v-64h-448v320h448v-64h-256v-64h192v-64h-192v-64z" />
    <glyph glyph-name="Eogonek" unicode="&#x118;" 
d="M192 128h256v-64h-448v320h448v-64h-256v-64h192v-64h-192v-64z" />
    <glyph glyph-name="Edieresis" unicode="&#xcb;" 
d="M192 128h256v-64h-448v320h448v-64h-256v-64h192v-64h-192v-64z" />
    <glyph glyph-name="Ecaron" unicode="&#x11a;" 
d="M192 128h256v-64h-448v320h448v-64h-256v-64h192v-64h-192v-64z" />
    <glyph glyph-name="eacute" unicode="&#xe9;" 
d="M192 128h256v-64h-448v320h448v-64h-256v-64h192v-64h-192v-64z" />
    <glyph glyph-name="eogonek" unicode="&#x119;" 
d="M192 128h256v-64h-448v320h448v-64h-256v-64h192v-64h-192v-64z" />
    <glyph glyph-name="edieresis" unicode="&#xeb;" 
d="M192 128h256v-64h-448v320h448v-64h-256v-64h192v-64h-192v-64z" />
    <glyph glyph-name="ecaron" unicode="&#x11b;" 
d="M192 128h256v-64h-448v320h448v-64h-256v-64h192v-64h-192v-64z" />
    <glyph glyph-name="Iacute" unicode="&#xcd;" horiz-adv-x="256" 
d="M192 64h-192v320h192v-320z" />
    <glyph glyph-name="Icircumflex" unicode="&#xce;" horiz-adv-x="256" 
d="M192 64h-192v320h192v-320z" />
    <glyph glyph-name="iacute" unicode="&#xed;" horiz-adv-x="256" 
d="M192 64h-192v320h192v-320z" />
    <glyph glyph-name="icircumflex" unicode="&#xee;" horiz-adv-x="256" 
d="M192 64h-192v320h192v-320z" />
    <glyph glyph-name="Dcaron" unicode="&#x10e;" 
d="M384 64h-384v320h384v-64h64v-192h-64v-64zM256 128v192h-64v-192h64z" />
    <glyph glyph-name="Dcroat" unicode="&#x110;" 
d="M384 64h-384v320h384v-64h64v-192h-64v-64zM256 128v192h-64v-192h64z" />
    <glyph glyph-name="dcaron" unicode="&#x10f;" 
d="M384 64h-384v320h384v-64h64v-192h-64v-64zM256 128v192h-64v-192h64z" />
    <glyph glyph-name="dcroat" unicode="&#x111;" 
d="M384 64h-384v320h384v-64h64v-192h-64v-64zM256 128v192h-64v-192h64z" />
    <glyph glyph-name="Nacute" unicode="&#x143;" 
d="M448 64h-128v64h-128v64h-64v-128h-128v320h128v-64h128v-64h64v128h128v-320z" />
    <glyph glyph-name="Ncaron" unicode="&#x147;" 
d="M448 64h-128v64h-128v64h-64v-128h-128v320h128v-64h128v-64h64v128h128v-320z" />
    <glyph glyph-name="nacute" unicode="&#x144;" 
d="M448 64h-128v64h-128v64h-64v-128h-128v320h128v-64h128v-64h64v128h128v-320z" />
    <glyph glyph-name="ncaron" unicode="&#x148;" 
d="M448 64h-128v64h-128v64h-64v-128h-128v320h128v-64h128v-64h64v128h128v-320z" />
    <glyph glyph-name="Oacute" unicode="&#xd3;" 
d="M384 64h-320v64h-64v192h64v64h320v-64h64v-192h-64v-64zM256 128v192h-64v-192h64z" />
    <glyph glyph-name="Ocircumflex" unicode="&#xd4;" 
d="M384 64h-320v64h-64v192h64v64h320v-64h64v-192h-64v-64zM256 128v192h-64v-192h64z" />
    <glyph glyph-name="Ohungarumlaut" unicode="&#x150;" 
d="M384 64h-320v64h-64v192h64v64h320v-64h64v-192h-64v-64zM256 128v192h-64v-192h64z" />
    <glyph glyph-name="Odieresis" unicode="&#xd6;" 
d="M384 64h-320v64h-64v192h64v64h320v-64h64v-192h-64v-64zM256 128v192h-64v-192h64z" />
    <glyph glyph-name="odieresis" unicode="&#xf6;" 
d="M384 64h-320v64h-64v192h64v64h320v-64h64v-192h-64v-64zM256 128v192h-64v-192h64z" />
    <glyph glyph-name="ohungarumlaut" unicode="&#x151;" 
d="M384 64h-320v64h-64v192h64v64h320v-64h64v-192h-64v-64zM256 128v192h-64v-192h64z" />
    <glyph glyph-name="ocircumflex" unicode="&#xf4;" 
d="M384 64h-320v64h-64v192h64v64h320v-64h64v-192h-64v-64zM256 128v192h-64v-192h64z" />
    <glyph glyph-name="oacute" unicode="&#xf3;" 
d="M384 64h-320v64h-64v192h64v64h320v-64h64v-192h-64v-64zM256 128v192h-64v-192h64z" />
    <glyph glyph-name="Uring" unicode="&#x16e;" 
d="M384 64h-320v64h-64v256h192v-256h64v256h192v-256h-64v-64z" />
    <glyph glyph-name="Uacute" unicode="&#xda;" 
d="M384 64h-320v64h-64v256h192v-256h64v256h192v-256h-64v-64z" />
    <glyph glyph-name="Uhungarumlaut" unicode="&#x170;" 
d="M384 64h-320v64h-64v256h192v-256h64v256h192v-256h-64v-64z" />
    <glyph glyph-name="Udieresis" unicode="&#xdc;" 
d="M384 64h-320v64h-64v256h192v-256h64v256h192v-256h-64v-64z" />
    <glyph glyph-name="uring" unicode="&#x16f;" 
d="M384 64h-320v64h-64v256h192v-256h64v256h192v-256h-64v-64z" />
    <glyph glyph-name="uacute" unicode="&#xfa;" 
d="M384 64h-320v64h-64v256h192v-256h64v256h192v-256h-64v-64z" />
    <glyph glyph-name="uhungarumlaut" unicode="&#x171;" 
d="M384 64h-320v64h-64v256h192v-256h64v256h192v-256h-64v-64z" />
    <glyph glyph-name="udieresis" unicode="&#xfc;" 
d="M384 64h-320v64h-64v256h192v-256h64v256h192v-256h-64v-64z" />
    <glyph glyph-name="zcaron" unicode="&#x17e;" 
d="M256 128h192v-64h-448v64h64v64h64v64h64v64h-192v64h448v-64h-64v-64h-64v-64h-64v-64z" />
    <glyph glyph-name="zacute" unicode="&#x17a;" 
d="M256 128h192v-64h-448v64h64v64h64v64h64v64h-192v64h448v-64h-64v-64h-64v-64h-64v-64z" />
    <glyph glyph-name="zdotaccent" unicode="&#x17c;" 
d="M256 128h192v-64h-448v64h64v64h64v64h64v64h-192v64h448v-64h-64v-64h-64v-64h-64v-64z" />
    <glyph glyph-name="Zdotaccent" unicode="&#x17b;" 
d="M256 128h192v-64h-448v64h64v64h64v64h64v64h-192v64h448v-64h-64v-64h-64v-64h-64v-64z" />
    <glyph glyph-name="Zacute" unicode="&#x179;" 
d="M256 128h192v-64h-448v64h64v64h64v64h64v64h-192v64h448v-64h-64v-64h-64v-64h-64v-64z" />
    <glyph glyph-name="Zcaron" unicode="&#x17d;" 
d="M256 128h192v-64h-448v64h64v64h64v64h64v64h-192v64h448v-64h-64v-64h-64v-64h-64v-64z" />
    <glyph glyph-name="Tcaron" unicode="&#x164;" 
d="M384 64h-320v64h64v192h-128v64h448v-64h-128v-192h64v-64z" />
    <glyph glyph-name="Lcaron" unicode="&#x13d;" 
d="M192 128h256v-64h-448v320h192v-256z" />
    <glyph glyph-name="lcaron" unicode="&#x13e;" 
d="M192 128h256v-64h-448v320h192v-256z" />
    <glyph glyph-name="Lslash" unicode="&#x141;" 
d="M192 128h256v-64h-448v320h192v-256z" />
    <glyph glyph-name="lslash" unicode="&#x142;" 
d="M192 128h256v-64h-448v320h192v-256z" />
  </font>
</defs>
</svg>
